<svg width="89" height="24" viewBox="0 0 89 24" fill="none" xmlns="http://www.w3.org/2000/svg">
<path d="M14.098 9.54688H10.9872C10.9304 9.14441 10.8144 8.78693 10.6392 8.47443C10.464 8.1572 10.2391 7.88731 9.96449 7.66477C9.68987 7.44223 9.37263 7.27178 9.01278 7.15341C8.65767 7.03504 8.27178 6.97585 7.85511 6.97585C7.10227 6.97585 6.4465 7.16288 5.88778 7.53693C5.32907 7.90625 4.89583 8.44602 4.58807 9.15625C4.2803 9.86174 4.12642 10.7187 4.12642 11.7273C4.12642 12.7642 4.2803 13.6354 4.58807 14.3409C4.90057 15.0464 5.33617 15.5791 5.89489 15.9389C6.4536 16.2988 7.09991 16.4787 7.83381 16.4787C8.24574 16.4787 8.62689 16.4242 8.97727 16.3153C9.33239 16.2064 9.64725 16.0478 9.92188 15.8395C10.1965 15.6264 10.4238 15.3684 10.6037 15.0653C10.7884 14.7623 10.9162 14.4167 10.9872 14.0284L14.098 14.0426C14.0175 14.7102 13.8163 15.3542 13.4943 15.9744C13.1771 16.59 12.7486 17.1416 12.2088 17.6293C11.6738 18.1122 11.0346 18.4957 10.2912 18.7798C9.55256 19.0592 8.71686 19.1989 7.78409 19.1989C6.48674 19.1989 5.3267 18.9053 4.30398 18.3182C3.28598 17.7311 2.48106 16.8812 1.8892 15.7685C1.30208 14.6558 1.00852 13.3087 1.00852 11.7273C1.00852 10.1411 1.30682 8.79167 1.90341 7.67898C2.5 6.56629 3.30966 5.71875 4.33239 5.13636C5.35511 4.54924 6.50568 4.25568 7.78409 4.25568C8.62689 4.25568 9.40814 4.37405 10.1278 4.6108C10.8523 4.84754 11.4938 5.19318 12.0526 5.64773C12.6113 6.09754 13.0658 6.64915 13.4162 7.30256C13.7713 7.95597 13.9986 8.70407 14.098 9.54688ZM19.272 4.45455V19H16.2464V4.45455H19.272ZM21.6957 19V8.09091H24.7212V19H21.6957ZM23.2156 6.68466C22.7657 6.68466 22.3799 6.53551 22.0579 6.23722C21.7406 5.93419 21.582 5.57197 21.582 5.15057C21.582 4.7339 21.7406 4.37642 22.0579 4.07812C22.3799 3.77509 22.7657 3.62358 23.2156 3.62358C23.6654 3.62358 24.0489 3.77509 24.3661 4.07812C24.6881 4.37642 24.8491 4.7339 24.8491 5.15057C24.8491 5.57197 24.6881 5.93419 24.3661 6.23722C24.0489 6.53551 23.6654 6.68466 23.2156 6.68466ZM32.0739 19.2131C30.9564 19.2131 29.9953 18.9763 29.1903 18.5028C28.3902 18.0246 27.7746 17.3617 27.3438 16.5142C26.9176 15.6667 26.7045 14.6913 26.7045 13.5881C26.7045 12.4706 26.92 11.4905 27.3509 10.6477C27.7865 9.80019 28.4044 9.13968 29.2045 8.66619C30.0047 8.18797 30.9564 7.94886 32.0597 7.94886C33.0114 7.94886 33.8447 8.12169 34.5597 8.46733C35.2746 8.81297 35.8404 9.2983 36.2571 9.9233C36.6738 10.5483 36.9034 11.2822 36.946 12.125H34.0909C34.0104 11.5805 33.7973 11.1425 33.4517 10.8111C33.1108 10.4749 32.6634 10.3068 32.1094 10.3068C31.6406 10.3068 31.2311 10.4347 30.8807 10.6903C30.535 10.9413 30.2652 11.3082 30.071 11.7912C29.8769 12.2741 29.7798 12.8589 29.7798 13.5455C29.7798 14.2415 29.8745 14.8333 30.0639 15.321C30.258 15.8087 30.5303 16.1804 30.8807 16.4361C31.2311 16.6918 31.6406 16.8196 32.1094 16.8196C32.455 16.8196 32.7652 16.7486 33.0398 16.6065C33.3191 16.4645 33.5488 16.2585 33.7287 15.9886C33.9134 15.714 34.0341 15.3849 34.0909 15.0014H36.946C36.8987 15.8348 36.6714 16.5687 36.2642 17.2031C35.8617 17.8329 35.3054 18.3253 34.5952 18.6804C33.8849 19.0355 33.0445 19.2131 32.0739 19.2131ZM41.6246 15.8608L41.6317 12.2315H42.0721L45.5664 8.09091H49.0394L44.3448 13.5739H43.6275L41.6246 15.8608ZM38.8832 19V4.45455H41.9087V19H38.8832ZM45.7013 19L42.4911 14.2486L44.5082 12.1108L49.2454 19H45.7013ZM48.8938 6.99006V4.45455H60.8398V6.99006H56.3867V19H53.3469V6.99006H48.8938ZM64.3768 19.206C63.6808 19.206 63.0605 19.0852 62.516 18.8438C61.9715 18.5975 61.5406 18.2353 61.2234 17.7571C60.9109 17.2741 60.7546 16.6728 60.7546 15.9531C60.7546 15.3471 60.8659 14.8381 61.0884 14.4261C61.311 14.0142 61.614 13.6828 61.9975 13.4318C62.381 13.1809 62.8166 12.9915 63.3043 12.8636C63.7968 12.7358 64.3129 12.6458 64.8526 12.5938C65.4871 12.5275 65.9985 12.4659 66.3867 12.4091C66.775 12.3475 67.0567 12.2576 67.2319 12.1392C67.4071 12.0208 67.4947 11.8456 67.4947 11.6136V11.571C67.4947 11.1212 67.3526 10.7732 67.0685 10.527C66.7892 10.2808 66.3915 10.1577 65.8754 10.1577C65.3308 10.1577 64.8976 10.2784 64.5756 10.5199C64.2537 10.7566 64.0406 11.0549 63.9364 11.4148L61.1381 11.1875C61.2802 10.5246 61.5595 9.9517 61.9762 9.46875C62.3929 8.98106 62.9303 8.60701 63.5884 8.34659C64.2513 8.08144 65.0183 7.94886 65.8896 7.94886C66.4956 7.94886 67.0756 8.01989 67.6296 8.16193C68.1883 8.30398 68.6831 8.52415 69.114 8.82244C69.5496 9.12074 69.8929 9.50426 70.1438 9.97301C70.3948 10.437 70.5202 10.9934 70.5202 11.642V19H67.6509V17.4872H67.5657C67.3905 17.8281 67.1561 18.1288 66.8626 18.3892C66.569 18.6449 66.2163 18.8461 65.8043 18.9929C65.3924 19.1349 64.9165 19.206 64.3768 19.206ZM65.2433 17.1179C65.6883 17.1179 66.0813 17.0303 66.4222 16.8551C66.7631 16.6752 67.0307 16.4337 67.2248 16.1307C67.4189 15.8277 67.516 15.4844 67.516 15.1009V13.9432C67.4213 14.0047 67.2911 14.0616 67.1254 14.1136C66.9644 14.161 66.7821 14.206 66.5785 14.2486C66.3749 14.2865 66.1713 14.322 65.9677 14.3551C65.7641 14.3835 65.5794 14.4096 65.4137 14.4332C65.0586 14.4853 64.7485 14.5682 64.4833 14.6818C64.2182 14.7955 64.0122 14.9493 63.8654 15.1435C63.7186 15.3329 63.6452 15.5696 63.6452 15.8537C63.6452 16.2656 63.7944 16.5805 64.0927 16.7983C64.3957 17.0114 64.7792 17.1179 65.2433 17.1179ZM75.8931 4.45455V19H72.8675V4.45455H75.8931ZM81.0582 15.8608L81.0653 12.2315H81.5057L85 8.09091H88.473L83.7784 13.5739H83.0611L81.0582 15.8608ZM78.3168 19V4.45455H81.3423V19H78.3168ZM85.1349 19L81.9247 14.2486L83.9418 12.1108L88.679 19H85.1349Z" fill="black"/>
<path d="M14.098 9.54688H10.9872C10.9304 9.14441 10.8144 8.78693 10.6392 8.47443C10.464 8.1572 10.2391 7.88731 9.96449 7.66477C9.68987 7.44223 9.37263 7.27178 9.01278 7.15341C8.65767 7.03504 8.27178 6.97585 7.85511 6.97585C7.10227 6.97585 6.4465 7.16288 5.88778 7.53693C5.32907 7.90625 4.89583 8.44602 4.58807 9.15625C4.2803 9.86174 4.12642 10.7187 4.12642 11.7273C4.12642 12.7642 4.2803 13.6354 4.58807 14.3409C4.90057 15.0464 5.33617 15.5791 5.89489 15.9389C6.4536 16.2988 7.09991 16.4787 7.83381 16.4787C8.24574 16.4787 8.62689 16.4242 8.97727 16.3153C9.33239 16.2064 9.64725 16.0478 9.92188 15.8395C10.1965 15.6264 10.4238 15.3684 10.6037 15.0653C10.7884 14.7623 10.9162 14.4167 10.9872 14.0284L14.098 14.0426C14.0175 14.7102 13.8163 15.3542 13.4943 15.9744C13.1771 16.59 12.7486 17.1416 12.2088 17.6293C11.6738 18.1122 11.0346 18.4957 10.2912 18.7798C9.55256 19.0592 8.71686 19.1989 7.78409 19.1989C6.48674 19.1989 5.3267 18.9053 4.30398 18.3182C3.28598 17.7311 2.48106 16.8812 1.8892 15.7685C1.30208 14.6558 1.00852 13.3087 1.00852 11.7273C1.00852 10.1411 1.30682 8.79167 1.90341 7.67898C2.5 6.56629 3.30966 5.71875 4.33239 5.13636C5.35511 4.54924 6.50568 4.25568 7.78409 4.25568C8.62689 4.25568 9.40814 4.37405 10.1278 4.6108C10.8523 4.84754 11.4938 5.19318 12.0526 5.64773C12.6113 6.09754 13.0658 6.64915 13.4162 7.30256C13.7713 7.95597 13.9986 8.70407 14.098 9.54688ZM19.272 4.45455V19H16.2464V4.45455H19.272ZM21.6957 19V8.09091H24.7212V19H21.6957ZM23.2156 6.68466C22.7657 6.68466 22.3799 6.53551 22.0579 6.23722C21.7406 5.93419 21.582 5.57197 21.582 5.15057C21.582 4.7339 21.7406 4.37642 22.0579 4.07812C22.3799 3.77509 22.7657 3.62358 23.2156 3.62358C23.6654 3.62358 24.0489 3.77509 24.3661 4.07812C24.6881 4.37642 24.8491 4.7339 24.8491 5.15057C24.8491 5.57197 24.6881 5.93419 24.3661 6.23722C24.0489 6.53551 23.6654 6.68466 23.2156 6.68466ZM32.0739 19.2131C30.9564 19.2131 29.9953 18.9763 29.1903 18.5028C28.3902 18.0246 27.7746 17.3617 27.3438 16.5142C26.9176 15.6667 26.7045 14.6913 26.7045 13.5881C26.7045 12.4706 26.92 11.4905 27.3509 10.6477C27.7865 9.80019 28.4044 9.13968 29.2045 8.66619C30.0047 8.18797 30.9564 7.94886 32.0597 7.94886C33.0114 7.94886 33.8447 8.12169 34.5597 8.46733C35.2746 8.81297 35.8404 9.2983 36.2571 9.9233C36.6738 10.5483 36.9034 11.2822 36.946 12.125H34.0909C34.0104 11.5805 33.7973 11.1425 33.4517 10.8111C33.1108 10.4749 32.6634 10.3068 32.1094 10.3068C31.6406 10.3068 31.2311 10.4347 30.8807 10.6903C30.535 10.9413 30.2652 11.3082 30.071 11.7912C29.8769 12.2741 29.7798 12.8589 29.7798 13.5455C29.7798 14.2415 29.8745 14.8333 30.0639 15.321C30.258 15.8087 30.5303 16.1804 30.8807 16.4361C31.2311 16.6918 31.6406 16.8196 32.1094 16.8196C32.455 16.8196 32.7652 16.7486 33.0398 16.6065C33.3191 16.4645 33.5488 16.2585 33.7287 15.9886C33.9134 15.714 34.0341 15.3849 34.0909 15.0014H36.946C36.8987 15.8348 36.6714 16.5687 36.2642 17.2031C35.8617 17.8329 35.3054 18.3253 34.5952 18.6804C33.8849 19.0355 33.0445 19.2131 32.0739 19.2131ZM41.6246 15.8608L41.6317 12.2315H42.0721L45.5664 8.09091H49.0394L44.3448 13.5739H43.6275L41.6246 15.8608ZM38.8832 19V4.45455H41.9087V19H38.8832ZM45.7013 19L42.4911 14.2486L44.5082 12.1108L49.2454 19H45.7013ZM48.8938 6.99006V4.45455H60.8398V6.99006H56.3867V19H53.3469V6.99006H48.8938ZM64.3768 19.206C63.6808 19.206 63.0605 19.0852 62.516 18.8438C61.9715 18.5975 61.5406 18.2353 61.2234 17.7571C60.9109 17.2741 60.7546 16.6728 60.7546 15.9531C60.7546 15.3471 60.8659 14.8381 61.0884 14.4261C61.311 14.0142 61.614 13.6828 61.9975 13.4318C62.381 13.1809 62.8166 12.9915 63.3043 12.8636C63.7968 12.7358 64.3129 12.6458 64.8526 12.5938C65.4871 12.5275 65.9985 12.4659 66.3867 12.4091C66.775 12.3475 67.0567 12.2576 67.2319 12.1392C67.4071 12.0208 67.4947 11.8456 67.4947 11.6136V11.571C67.4947 11.1212 67.3526 10.7732 67.0685 10.527C66.7892 10.2808 66.3915 10.1577 65.8754 10.1577C65.3308 10.1577 64.8976 10.2784 64.5756 10.5199C64.2537 10.7566 64.0406 11.0549 63.9364 11.4148L61.1381 11.1875C61.2802 10.5246 61.5595 9.9517 61.9762 9.46875C62.3929 8.98106 62.9303 8.60701 63.5884 8.34659C64.2513 8.08144 65.0183 7.94886 65.8896 7.94886C66.4956 7.94886 67.0756 8.01989 67.6296 8.16193C68.1883 8.30398 68.6831 8.52415 69.114 8.82244C69.5496 9.12074 69.8929 9.50426 70.1438 9.97301C70.3948 10.437 70.5202 10.9934 70.5202 11.642V19H67.6509V17.4872H67.5657C67.3905 17.8281 67.1561 18.1288 66.8626 18.3892C66.569 18.6449 66.2163 18.8461 65.8043 18.9929C65.3924 19.1349 64.9165 19.206 64.3768 19.206ZM65.2433 17.1179C65.6883 17.1179 66.0813 17.0303 66.4222 16.8551C66.7631 16.6752 67.0307 16.4337 67.2248 16.1307C67.4189 15.8277 67.516 15.4844 67.516 15.1009V13.9432C67.4213 14.0047 67.2911 14.0616 67.1254 14.1136C66.9644 14.161 66.7821 14.206 66.5785 14.2486C66.3749 14.2865 66.1713 14.322 65.9677 14.3551C65.7641 14.3835 65.5794 14.4096 65.4137 14.4332C65.0586 14.4853 64.7485 14.5682 64.4833 14.6818C64.2182 14.7955 64.0122 14.9493 63.8654 15.1435C63.7186 15.3329 63.6452 15.5696 63.6452 15.8537C63.6452 16.2656 63.7944 16.5805 64.0927 16.7983C64.3957 17.0114 64.7792 17.1179 65.2433 17.1179ZM75.8931 4.45455V19H72.8675V4.45455H75.8931ZM81.0582 15.8608L81.0653 12.2315H81.5057L85 8.09091H88.473L83.7784 13.5739H83.0611L81.0582 15.8608ZM78.3168 19V4.45455H81.3423V19H78.3168ZM85.1349 19L81.9247 14.2486L83.9418 12.1108L88.679 19H85.1349Z" fill="black"/>
</svg>
