<svg width="96" height="96" viewBox="0 0 96 96" fill="none" xmlns="http://www.w3.org/2000/svg">
<rect x="52" y="56" width="8" height="8" rx="4" fill="#CCD2E3"/>
<rect x="28" y="44" width="8" height="24" rx="4" fill="#CCD2E3"/>
<rect x="44" y="52" width="8" height="24" rx="4" transform="rotate(90 44 52)" fill="#CCD2E3"/>
<rect x="64" y="48" width="8" height="8" rx="4" fill="#CCD2E3"/>
<path d="M56 32V32C56 30.333 56 29.4995 55.8618 28.7658C55.3821 26.2184 53.698 24.0614 51.343 22.9782C50.6647 22.6662 49.8561 22.464 48.2389 22.0597L48 22C46.1553 21.5388 45.2329 21.3082 44.4682 20.932C42.2744 19.8526 40.6946 17.8293 40.1795 15.4391C40 14.606 40 13.6553 40 11.7538V8" stroke="#CCD2E3" stroke-width="8" stroke-linecap="round"/>
<path d="M12 56C12 45.7648 12 40.6471 14.4798 37.1217C15.1182 36.214 15.8629 35.4016 16.6949 34.7052C19.9265 32 24.6177 32 34 32H62C71.3823 32 76.0735 32 79.3051 34.7052C80.1371 35.4016 80.8818 36.214 81.5202 37.1217C84 40.6471 84 45.7648 84 56C84 66.2352 84 71.3529 81.5202 74.8783C80.8818 75.786 80.1371 76.5984 79.3051 77.2948C76.0735 80 71.3823 80 62 80H34C24.6177 80 19.9265 80 16.6949 77.2948C15.8629 76.5984 15.1182 75.786 14.4798 74.8783C12 71.3529 12 66.2352 12 56Z" stroke="#CCD2E3" stroke-width="8"/>
</svg>
