<svg width="24" height="24" viewBox="0 0 24 24" fill="none" xmlns="http://www.w3.org/2000/svg">
<path d="M10.875 11.25C10.875 11.0275 10.941 10.81 11.0646 10.625C11.1882 10.44 11.3639 10.2958 11.5695 10.2106C11.775 10.1255 12.0012 10.1032 12.2195 10.1466C12.4377 10.19 12.6382 10.2972 12.7955 10.4545C12.9528 10.6118 13.06 10.8123 13.1034 11.0305C13.1468 11.2488 13.1245 11.475 13.0394 11.6805C12.9542 11.8861 12.81 12.0618 12.625 12.1854C12.44 12.309 12.2225 12.375 12 12.375C11.7016 12.375 11.4155 12.2565 11.2045 12.0455C10.9935 11.8345 10.875 11.5484 10.875 11.25ZM16.125 12.375C16.3475 12.375 16.565 12.309 16.75 12.1854C16.935 12.0618 17.0792 11.8861 17.1644 11.6805C17.2495 11.475 17.2718 11.2488 17.2284 11.0305C17.185 10.8123 17.0778 10.6118 16.9205 10.4545C16.7632 10.2972 16.5627 10.19 16.3445 10.1466C16.1262 10.1032 15.9 10.1255 15.6945 10.2106C15.4889 10.2958 15.3132 10.44 15.1896 10.625C15.066 10.81 15 11.0275 15 11.25C15 11.5484 15.1185 11.8345 15.3295 12.0455C15.5405 12.2565 15.8266 12.375 16.125 12.375ZM21.75 5.25V17.25C21.75 17.6478 21.592 18.0294 21.3107 18.3107C21.0294 18.592 20.6478 18.75 20.25 18.75H14.6747L13.2834 21.0272C13.1495 21.2484 12.9607 21.4312 12.7353 21.5579C12.5099 21.6846 12.2556 21.7509 11.997 21.7503C11.7384 21.7497 11.4844 21.6823 11.2596 21.5547C11.0347 21.427 10.8467 21.2433 10.7137 21.0216L9.32531 18.75H3.75C3.35218 18.75 2.97064 18.592 2.68934 18.3107C2.40804 18.0294 2.25 17.6478 2.25 17.25V5.25C2.25 4.85218 2.40804 4.47064 2.68934 4.18934C2.97064 3.90804 3.35218 3.75 3.75 3.75H20.25C20.6478 3.75 21.0294 3.90804 21.3107 4.18934C21.592 4.47064 21.75 4.85218 21.75 5.25ZM20.25 5.25H3.75V17.25H9.32531C9.58354 17.2507 9.83727 17.3177 10.0622 17.4446C10.2871 17.5715 10.4756 17.754 10.6097 17.9747L12 20.25L13.3894 17.97C13.5241 17.75 13.713 17.5682 13.938 17.4422C14.1631 17.3161 14.4167 17.2499 14.6747 17.25H20.25V5.25ZM7.875 12.375C8.0975 12.375 8.31501 12.309 8.50002 12.1854C8.68502 12.0618 8.82922 11.8861 8.91436 11.6805C8.99951 11.475 9.02179 11.2488 8.97838 11.0305C8.93498 10.8123 8.82783 10.6118 8.6705 10.4545C8.51316 10.2972 8.31271 10.19 8.09448 10.1466C7.87625 10.1032 7.65005 10.1255 7.44448 10.2106C7.23891 10.2958 7.06321 10.44 6.9396 10.625C6.81598 10.81 6.75 11.0275 6.75 11.25C6.75 11.5484 6.86853 11.8345 7.0795 12.0455C7.29048 12.2565 7.57663 12.375 7.875 12.375Z" fill="white"/>
</svg>
