<svg width="24" height="24" viewBox="0 0 24 24" fill="none" xmlns="http://www.w3.org/2000/svg">
<path d="M21.5306 10.7195L12.5306 1.71948C12.461 1.64974 12.3782 1.59443 12.2872 1.55668C12.1961 1.51894 12.0985 1.49951 12 1.49951C11.9014 1.49951 11.8038 1.51894 11.7128 1.55668C11.6217 1.59443 11.539 1.64974 11.4694 1.71948L2.46936 10.7195C2.36435 10.8244 2.29282 10.9581 2.26383 11.1036C2.23485 11.2492 2.2497 11.4001 2.30651 11.5372C2.36333 11.6743 2.45955 11.7915 2.58299 11.8739C2.70644 11.9563 2.85156 12.0002 2.99998 12.0001H6.74998V17.2501C6.74998 17.449 6.829 17.6398 6.96965 17.7804C7.1103 17.9211 7.30107 18.0001 7.49998 18.0001H16.5C16.6989 18.0001 16.8897 17.9211 17.0303 17.7804C17.171 17.6398 17.25 17.449 17.25 17.2501V12.0001H21C21.1484 12.0002 21.2935 11.9563 21.417 11.8739C21.5404 11.7915 21.6366 11.6743 21.6934 11.5372C21.7503 11.4001 21.7651 11.2492 21.7361 11.1036C21.7071 10.9581 21.6356 10.8244 21.5306 10.7195ZM16.5 10.5001C16.3011 10.5001 16.1103 10.5791 15.9697 10.7198C15.829 10.8604 15.75 11.0512 15.75 11.2501V16.5001H8.24998V11.2501C8.24998 11.0512 8.17096 10.8604 8.03031 10.7198C7.88966 10.5791 7.69889 10.5001 7.49998 10.5001H4.81029L12 3.31041L19.1897 10.5001H16.5ZM17.25 20.2501C17.25 20.449 17.171 20.6398 17.0303 20.7804C16.8897 20.9211 16.6989 21.0001 16.5 21.0001H7.49998C7.30107 21.0001 7.1103 20.9211 6.96965 20.7804C6.829 20.6398 6.74998 20.449 6.74998 20.2501C6.74998 20.0512 6.829 19.8604 6.96965 19.7198C7.1103 19.5791 7.30107 19.5001 7.49998 19.5001H16.5C16.6989 19.5001 16.8897 19.5791 17.0303 19.7198C17.171 19.8604 17.25 20.0512 17.25 20.2501Z" fill="white"/>
</svg>
